<?xml version="1.0"?>
<svg version="1.1" xmlns="http://www.w3.org/2000/svg" width="400px" height="200px" style="border: dashed 2px #aaa"><path fill="#" d=""/><path fill="#" d="M72.148,104.816q-1.036,0.42-1.778,0.42t-0.742-0.308q0-0.196,0.826-0.224t1.19-0.196q1.064-0.56,1.064-1.652q0-0.56-0.308-1.176q-0.896-1.596-4.34-1.596q-1.988,0-3.976,0.602t-3.332,1.848t-1.344,2.31q0,1.624,3.22,2.38l3.304,0.616q1.988,0.364,2.968,1.008q1.288,0.784,1.288,2.24q0,0.588-0.196,1.26q-0.896,3.024-4.62,4.62q-3.108,1.372-7.336,1.372q-1.204,0-2.1-0.112q0.896,0.504,2.352,0.868q0.112,0.028,0.112,0.112q0,0.252-0.588,0.252q-1.148,0-2.856-1.372q-2.324-0.364-3.472-1.288q-0.728-0.588-1.344-1.736t-0.616-2.072t0.364-1.54q0.84-1.484,2.128-1.484q0.98,0,1.148,1.652q0.392,3.192,0.532,3.64q0.42,1.372,1.428,2.324q1.176,0.252,2.548,0.252q3.024,0,5.936-1.204t4.2-3.416q0.532-0.868,0.532-1.54q0-1.316-2.324-2.044l-4.928-1.12q-1.512-0.364-2.422-1.204t-0.91-1.932q0-1.68,2.1-3.36q1.596-1.288,3.906-2.002t4.536-0.714t3.682,0.644q1.876,0.868,1.876,2.534t-1.708,2.338z M54.116,117.304q-1.624-1.792-2.072-4.9q-0.252-1.764-0.476-1.764t-0.42,0.126t-0.392,0.546t-0.196,1.092q0,2.156,1.512,3.696q0.756,0.784,2.044,1.204z M98.66876,108.792l2.716-0.056q1.008,0,1.008,0.14q0,0.364-4.088,0.644q-2.604,5.096-2.604,6.944q0,1.288,0.812,1.288q0.308,0,0.77-0.378t0.56-0.378t0.098,0.14q-0.14,0.504-0.854,0.84t-1.204,0.336t-0.77-0.056q-0.672-0.252-0.672-1.624q0-2.828,2.156-7.196l-3.36,0.084q-3.752,3.668-7.532,6.44q-5.656,4.116-8.848,4.116q-0.196,0-0.392-0.028q-4.312-0.364-4.312-4.424q0-2.408,1.512-5.096q2.016-3.584,5.516-6.118t6.272-2.534t2.772,2.044q0,1.372-0.84,3.052t-1.708,2.128q-0.084,0.028-0.182,0.028t-0.098-0.056l0.924-1.512q0.952-1.484,0.952-2.604t-0.49-1.806t-1.554-0.686q-2.184,0-5.222,2.436t-4.62,5.992t-1.582,5.544q0,2.996,3.052,2.996q2.912,0,7.896-3.752q2.212-1.652,7.196-6.244q-0.98,0.056-1.82,0.196q-1.792,0.336-1.68-0.112q0.112-1.036,1.064-1.036q1.848,0.224,3.108,0.224q2.408-2.212,7.196-7.252q3.22-3.388,3.92-3.388q0.308,0,0.308,0.476t-0.252,1.484t-0.56,1.232q-0.644,0.448-1.204,1.218t-1.596,2.884t-1.764,3.43z M100.90876,101.96l-7.168,6.72l1.652,0q0.588,0.028,1.456,0.028q0.812-1.596,4.06-6.748z M110.09752,108.792q0.392,0,0.392,0.924q0,1.4-1.386,2.618t-3.178,1.218q-1.148,0-2.212-0.56q-2.268-1.232-2.268-4.284q0-2.156,1.176-4.228q1.624-2.828,4.662-4.48t5.922-1.652q2.1,0,3.444,0.924q1.512,1.036,1.512,3.08q0,2.604-2.52,8.162t-2.52,6.286q0,0.224,0.14,0.14q0.728-0.476,6.678-7.602t8.274-8.806q2.072-1.54,3.458-2.31t2.842-0.77q0.392,0,0.588,0.028q0.756,0.056,0.756,0.784q0,0.364-0.252,0.364q-0.028,0-0.392-0.126t-0.616-0.126q-3.92,0-10.556,7.084q-2.492,2.66-6.062,7.168t-4.214,4.872q-2.268,1.288-2.548,1.288q-0.084,0-0.084-0.28q0-0.924,1.568-4.704q0.644-1.456,1.876-4.368l1.288-3.78q0.672-1.904,0.672-2.772q0-1.932-1.12-2.94t-3.22-1.008t-4.508,1.484q-2.604,1.68-3.892,4.144t-1.288,4.172t0.7,2.688q1.148,1.596,3.052,1.596q1.456,0,2.576-0.966t1.12-2.45q0-0.308-0.07-0.56t0.21-0.252z M145.27028,106.832q0,3.5-3.584,6.692q-5.516,4.928-12.348,4.928q-0.756,0-1.176-0.028q-2.24-0.112-3.598-1.47t-1.358-3.514t1.148-4.704q1.456-3.22,5.684-6.272q4.872-3.472,10.08-3.472q2.8,0,4.256,1.092t1.456,2.716q0,1.008-0.784,2.492q0.224,0.756,0.224,1.54z M144.68228,104.452q0.28-0.672,0.28-1.498t-0.616-1.694q-1.204-1.68-4.256-1.68q-4.228,0-7.98,2.618t-5.852,6.594q-1.54,2.884-1.54,5.18q0,3.696,3.724,3.892q0.392,0.028,0.784,0.028q5.516,0,10.5-4.452q3.584-3.192,3.864-6.076q-1.456,1.596-5.04,3.808l-0.224,0.056q-0.028,0-0.028-0.028q0-0.112,0.756-0.756l1.568-1.288q2.016-1.764,2.94-2.884q-0.196-1.568-1.414-2.618t-2.786-1.526q-0.784-0.196-2.422-0.252t-1.638-0.112t0.056-0.112q1.288-0.42,2.478-0.42t2.73,0.364q2.94,0.7,4.116,2.856z M161.73904,109.24q-1.4,0-2.604-0.224q0.392,1.232,1.652,5.572q0.392,1.26,1.232,2.548q1.148,1.652,2.128,1.652q1.176,0,1.96-2.38q0.14-0.56,0.294-0.56t0.224,0.322t0.07,0.434q0,0.7-0.784,1.792q-1.036,1.54-2.268,1.54t-2.268-1.232t-2.03-4.494t-0.994-4.158q0-0.14,0.028-0.224q-3.36,4.452-4.816,5.88q-3.248,3.164-6.636,3.164q-2.38,0-2.38-1.792q0-0.896,0.56-1.974t1.372-1.89t1.428-0.812q0.112,0,0.112,0.056q0,0.14-0.7,0.7t-1.344,1.582t-0.644,1.862q0,1.484,1.988,1.484q3.724,0,10.248-8.736q0.364-0.476,0.616-0.672l-0.448-0.168q-0.364,0.14-0.588,0.14q-0.588,0-0.588-0.476q0-0.644,0.868-0.84q0.112-0.028,0.196-0.028q0.504,0,1.176,0.504q2.464-2.744,2.52-2.8q2.044-2.1,2.758-2.1t0.714,0.616q0,0.28-0.126,0.532t-0.294,0.252q-0.168,0.056-0.168-0.168q0-0.112,0.168-0.336q0.028-0.392-0.252-0.392q-0.896,0-4.34,4.76q0.84,0.056,1.4,0.056q6.496,0,8.12-3.36q0.336-0.728,0.336-1.344q0-1.232-1.12-2.128q-1.792-1.456-5.824-1.456t-8.232,2.044q-5.096,2.492-5.096,5.852q0,1.092,1.372,1.092t2.912-1.008t2.072-1.988q0.196-0.364,0.378-0.364t0.098,0.224q-0.532,1.568-2.366,2.674t-3.822,1.106t-1.988-1.26l0-0.196q0.42-3.668,4.494-6.23t9.814-2.562q5.348,0,7.588,1.848q1.344,1.12,1.344,2.632q0,0.644-0.308,1.4q-0.868,2.044-3.556,3.038t-5.656,0.994z"/></svg>
